<svg width="42" height="42" viewBox="0 0 42 42" fill="none" xmlns="http://www.w3.org/2000/svg">
<g clip-path="url(#clip0_196_4)">
<path d="M18.4498 41.8425C14.7039 41.3568 10.8478 39.7503 8.03901 37.502C1.71539 32.4568 -1.15505 24.486 0.485576 16.5703C1.18908 13.1525 3.02133 9.55628 5.36676 6.96541C7.09568 5.02217 9.17901 3.42615 11.5053 2.26272C14.595 0.696908 17.5481 -0.0065918 21.0341 -0.0065918C23.5357 -0.0065918 25.5465 0.321533 27.8499 1.10772C30.8761 2.14553 33.6254 3.86062 35.8881 6.12222C38.1508 8.38383 39.8673 11.1322 40.9066 14.1579C42.1378 17.7673 42.3622 21.609 41.576 25.4165C40.9473 28.4248 39.3264 31.8084 37.3314 34.2549C36.5111 35.2668 34.6237 37.0715 33.6328 37.8026C30.6685 40.0049 27.1819 41.3972 23.516 41.8425C22.4358 41.979 19.4945 41.9724 18.4498 41.8425ZM24.1723 40.0863C26.7058 39.662 29.1309 38.7427 31.3091 37.3809C33.4872 36.0191 35.3758 34.2415 36.8668 32.1497C40.4145 27.1661 41.3647 20.4802 39.3618 14.6501C38.8906 13.2825 37.7212 11 36.8668 9.79647C35.9165 8.44985 33.5645 6.09128 32.2113 5.14103C30.8988 4.21178 28.6636 3.08303 27.1385 2.58428C24.3856 1.66937 21.4622 1.38485 18.5845 1.75174C15.7068 2.11864 12.9484 3.12757 10.5131 4.70397C8.22189 6.20943 6.26323 8.1681 4.75776 10.4593C3.18168 12.8932 2.17289 15.6504 1.80599 18.5267C1.43908 21.4031 1.72346 24.3252 2.63808 27.0768C3.14339 28.6007 4.27214 30.8437 5.19483 32.1562C6.15164 33.5028 8.50364 35.8614 9.85026 36.8117C11.0604 37.6595 13.3363 38.8277 14.7039 39.3067C17.748 40.3409 21 40.6087 24.1723 40.0863ZM16.8984 33.0448C15.9168 32.8978 14.9752 32.5536 14.1303 32.0328C13.3717 31.5472 7.64264 25.935 7.36308 25.4087C7.04151 24.8075 7.60195 23.7129 8.40258 23.3782L8.77795 23.2207L7.62295 22.0447C6.9877 21.395 6.38526 20.7047 6.28945 20.513C6.0637 20.076 6.05714 19.1388 6.26845 18.7215C6.3577 18.5508 6.56901 18.291 6.73308 18.1466C7.01395 17.9143 7.0402 17.8316 7.01395 17.2436C6.97983 16.7238 7.02708 16.5191 7.25283 16.1293C7.58095 15.5688 8.2582 15.1922 8.92101 15.1856C9.28983 15.1856 9.38564 15.1383 9.54314 14.864C9.95395 14.1461 11.1286 13.8862 12.0251 14.3246L12.5107 14.5569L12.7496 14.3246C13.0777 14.024 13.734 13.7576 14.1645 13.7576C15.0255 13.7576 16.2421 14.7485 16.2421 15.4455C16.2421 16.2789 15.4835 16.4233 14.7315 15.7329C14.2327 15.2683 13.9794 15.2197 13.7746 15.5478C13.6723 15.7053 13.9177 15.9993 15.3877 17.4825C16.8577 18.959 17.1241 19.274 17.1241 19.5536C17.1125 19.7679 17.0213 19.9701 16.8683 20.1206C16.7154 20.2712 16.5117 20.3592 16.2973 20.3673C16.0308 20.3673 15.5938 19.9841 13.5765 17.9747C11.5185 15.9232 11.1431 15.5951 10.979 15.6988C10.5341 15.9797 10.685 16.1844 13.0908 18.5968C14.3968 19.9093 15.4704 21.0708 15.4704 21.1811C15.4704 21.4068 15.2656 21.8242 15.095 21.9332C14.955 21.9944 14.8028 22.0227 14.6501 22.0158C14.3692 22.0224 13.9387 21.6326 11.6497 19.3502C9.35283 17.0664 8.94201 16.6976 8.77795 16.8C8.32645 17.0874 8.47739 17.2856 11.0958 19.9172C12.5251 21.3465 13.7208 22.6248 13.755 22.7613C13.8298 23.0081 13.6657 23.4386 13.4478 23.5882C13.3032 23.6497 13.1467 23.678 12.9898 23.6709C12.7089 23.6709 12.3545 23.3638 10.4606 21.4698C8.63489 19.6442 8.21095 19.2688 7.97864 19.2898C7.32239 19.3646 7.5547 19.6586 10.9449 23.0567C13.8849 26.0032 14.2603 26.4206 14.2603 26.7277C14.2637 26.8406 14.2386 26.9524 14.1872 27.053C14.1358 27.1535 14.0598 27.2393 13.9663 27.3026C13.44 27.72 13.2352 27.6242 11.9083 26.3392C11.231 25.6895 10.5341 25.0608 10.349 24.944C10.0143 24.7393 9.16645 24.65 9.00895 24.8141C8.95383 24.8613 10.2046 26.1817 11.7849 27.7462C14.4165 30.3502 14.717 30.618 15.4901 30.9868C16.2021 31.3417 16.9865 31.5275 17.7821 31.5298C18.5778 31.5321 19.3632 31.3507 20.0773 30.9999C22.2849 29.9473 23.5095 27.3905 22.907 25.0727C22.6065 23.9177 22.2298 23.3638 20.7125 21.798C18.963 20.0064 18.5587 19.5142 18.1282 18.6532C17.6491 17.6898 17.4444 16.7527 17.4444 15.5833C17.4444 14.318 17.5743 13.7445 18.1348 12.5619C18.6676 11.4345 19.782 10.2519 20.8831 9.64291C23.0435 8.43935 25.8877 8.54172 27.951 9.88966C28.3618 10.1561 29.8449 11.5513 31.6903 13.4032C34.4321 16.1516 34.7458 16.5073 34.7458 16.821C34.7458 17.5665 34.1368 18.3933 33.4608 18.564C33.2075 18.6322 33.2561 18.7005 34.4045 19.8699C35.0739 20.5472 35.696 21.2782 35.7918 21.504C36.1134 22.277 35.969 23.0278 35.381 23.6433C35.0805 23.9583 35.0398 24.0673 35.0319 24.696C35.0253 25.2498 34.9636 25.4822 34.7445 25.7972C34.5713 26.0534 34.3395 26.2646 34.0683 26.4132C33.7971 26.5619 33.4944 26.6436 33.1852 26.6516C32.7613 26.6516 32.6799 26.6923 32.4673 27.0138C31.9882 27.7528 30.744 28.0113 29.9381 27.5336L29.5351 27.2947L29.2477 27.5756C28.6125 28.1846 27.5861 28.266 26.8078 27.7672C26.1791 27.3708 25.7145 26.817 25.7145 26.4678C25.7145 26.1607 26.1594 25.6541 26.4324 25.6541C26.6923 25.6541 27.0414 25.8588 27.4378 26.229C27.8341 26.6043 28.1767 26.6043 28.2305 26.2224C28.2581 26.0177 27.93 25.6278 26.603 24.2943C25.2078 22.886 24.9414 22.5645 24.9414 22.2915C24.9383 22.1391 24.9664 21.9876 25.0241 21.8465C25.175 21.6208 25.599 21.4633 25.8575 21.5315C25.994 21.5657 27.149 22.6327 28.4143 23.8967C29.6861 25.1685 30.8004 26.2067 30.9028 26.2067C31.1836 26.2067 31.3674 25.9258 31.2375 25.6869C31.1758 25.578 30.1021 24.4768 28.8579 23.2325C26.9101 21.2913 26.5951 20.9291 26.5951 20.6417C26.5891 20.4869 26.6173 20.3327 26.6778 20.1902C26.7946 20.0195 27.2041 19.8148 27.4365 19.8148C27.5388 19.8148 28.8238 21.0105 30.2938 22.4739C32.987 25.154 33.1852 25.3037 33.4661 24.86C33.5685 24.696 33.1996 24.2786 30.9159 21.9883C28.5573 19.6232 28.2436 19.2675 28.2436 18.9603C28.2436 18.749 28.3395 18.5298 28.4904 18.3933C28.9891 17.9222 29.1401 18.018 31.5669 20.4303C33.8638 22.7207 34.0685 22.8703 34.3494 22.4332C34.4518 22.2692 33.9871 21.7638 31.1364 18.9052C28.0323 15.788 27.8079 15.5347 27.8079 15.1725C27.8079 14.6252 28.1229 14.3653 28.7306 14.4073C28.8395 14.4138 29.4958 14.9677 30.173 15.6305C30.8568 16.2933 31.5945 16.9155 31.8136 17.0113C32.2441 17.1885 32.7429 17.216 32.9555 17.0795C33.1603 16.9496 27.4863 11.3649 26.7487 10.9751C26.1162 10.6337 25.4206 10.4254 24.7047 10.363C23.9887 10.3006 23.2675 10.3853 22.5855 10.612C21.9035 10.8387 21.2751 11.2026 20.739 11.6813C20.2029 12.16 19.7705 12.7433 19.4683 13.3953C19.1126 14.154 19.0653 14.3797 19.0168 15.3575C18.9761 16.2802 19.0102 16.5677 19.2084 17.1557C19.5641 18.2017 19.8712 18.6322 21.4646 20.2597C23.1879 22.0237 23.516 22.4267 23.9531 23.3703C25.1842 25.9953 24.6645 29.0312 22.634 31.0537C21.0892 32.6051 18.984 33.3309 16.8984 33.0448Z" fill="#ECB93D"/>
</g>
<defs>
<clipPath id="clip0_196_4">
<rect width="42" height="42" fill="white"/>
</clipPath>
</defs>
</svg>
