<svg width="43" height="41" viewBox="0 0 43 41" fill="none" xmlns="http://www.w3.org/2000/svg">
<path fill-rule="evenodd" clip-rule="evenodd" d="M30.3337 9.28613V24.0312C30.3337 25.6333 29.7286 26.902 28.7337 27.7445C27.7632 28.5649 26.511 28.9039 25.313 28.8531C23.9284 28.7957 22.4819 28.1939 21.5103 27.072C21.2596 29.0927 21.9817 30.4364 22.3097 30.7909L23.0605 31.6002L21.4418 33.1019L20.691 32.2925C19.7922 31.3231 18.8271 29.0386 19.4444 26.054C18.4997 26.2519 17.5246 26.2541 16.5791 26.0606C15.5886 25.8508 14.6147 25.3992 13.8772 24.6407C13.1219 23.8644 12.667 22.8188 12.667 21.56C12.667 19.7448 13.3151 18.433 14.4734 17.4746C15.5445 16.588 16.9986 16.0558 18.4694 15.5799C18.8139 15.4695 19.1657 15.3579 19.525 15.2453C22.3285 14.3653 25.514 13.3649 28.5162 10.8253L30.3337 9.28613ZM22.5614 23.9627C23.0263 23.1103 23.6656 22.1983 24.5291 21.2387L25.2688 20.4183L23.627 18.941L22.8872 19.7614C21.794 20.9759 20.9968 22.1574 20.4315 23.2781C19.6012 23.8876 18.2651 24.1604 17.0362 23.8998C16.3704 23.7584 15.826 23.4769 15.4594 23.1004C15.1105 22.7426 14.8753 22.2524 14.8753 21.5589C14.8753 20.3598 15.2618 19.6874 15.8812 19.1739C16.5868 18.5909 17.6523 18.1647 19.1496 17.68C19.4757 17.5755 19.8165 17.4676 20.172 17.3565C22.4676 16.6399 25.3174 15.7499 28.1253 13.8773V24.0312C28.1253 25.0415 27.7643 25.672 27.3082 26.0573C26.8279 26.4637 26.1456 26.6779 25.4058 26.6469C23.9394 26.5862 22.6343 25.6267 22.5614 23.9627Z" fill="#917AAB"/>
<path fill-rule="evenodd" clip-rule="evenodd" d="M21.5002 39.2708L21.0187 40.2646L21.0143 40.2624L21.0011 40.2557L20.9536 40.2326L20.7769 40.1442C20.6246 40.0669 20.4037 39.9521 20.1244 39.8019C16.8153 38.011 13.7043 35.8762 10.8427 33.4331C5.80333 29.097 0.520996 22.6675 0.520996 14.6744C0.520996 11.0826 1.71018 7.60333 3.74627 5.00192C5.78898 2.39498 8.72716 0.625 12.1843 0.625C16.2874 0.625 19.4022 2.95148 21.5002 6.23196C23.597 2.95258 26.7118 0.625 30.8171 0.625C34.2732 0.625 37.2113 2.39498 39.253 5.00302C41.2912 7.60333 42.4793 11.0815 42.4793 14.6755C42.4793 22.3638 37.1882 28.7945 32.1653 33.1946C29.1124 35.8474 25.7877 38.1702 22.2466 40.1244L22.071 40.2182L22.0235 40.2436L22.0114 40.2502L22.0059 40.2524L21.5002 39.2708ZM5.48533 6.36335C3.76835 8.55623 2.72933 11.5496 2.72933 14.6744C2.72933 21.677 7.3845 27.5457 12.2826 31.7592C15.1142 34.1749 18.2 36.2756 21.4858 38.0242L21.8104 37.8431C24.978 36.039 27.9591 33.9257 30.71 31.5339C35.6236 27.2277 40.271 21.3612 40.271 14.6733C40.271 11.5485 39.232 8.55623 37.515 6.36335C35.8035 4.17821 33.4627 2.83333 30.8171 2.83333C27.1579 2.83333 24.3246 5.22606 22.4917 8.9725L21.5002 11.0009L20.5086 8.97471C18.6757 5.22606 15.8424 2.83333 12.1832 2.83333C9.53762 2.83333 7.19679 4.17821 5.48533 6.36335Z" fill="#917AAB"/>
<path d="M21.5 39.2709L22.0057 40.2525L21.5154 40.5042L21.0186 40.2646L21.5 39.2709Z" fill="#917AAB"/>
</svg>
