<svg width="40" height="38" viewBox="0 0 40 38" fill="none" xmlns="http://www.w3.org/2000/svg">
<path d="M20.0002 18.3333C21.1052 18.3333 22.165 17.8943 22.9464 17.1129C23.7278 16.3315 24.1668 15.2717 24.1668 14.1667C24.1668 13.0616 23.7278 12.0018 22.9464 11.2204C22.165 10.439 21.1052 10 20.0002 10C18.8951 10 17.8353 10.439 17.0539 11.2204C16.2725 12.0018 15.8335 13.0616 15.8335 14.1667C15.8335 15.2717 16.2725 16.3315 17.0539 17.1129C17.8353 17.8943 18.8951 18.3333 20.0002 18.3333Z" stroke="#4D8876" stroke-width="2" stroke-miterlimit="2"/>
<path d="M19.1668 24.1667L17.5002 30M19.1668 24.1667L5.8335 19.1667M19.1668 24.1667L29.1668 22.5L34.2002 18.3583M17.5002 30L10.0002 28.3333L5.8335 36.6667M17.5002 30L19.1668 36.6667H28.3335M10.0002 3.33333C21.6668 1.66666 30.0002 4.99999 36.6668 12.5" stroke="#4D8876" stroke-width="2" stroke-miterlimit="2" stroke-linecap="round" stroke-linejoin="round"/>
</svg>
