<svg width="44" height="40" viewBox="0 0 44 40" fill="none" xmlns="http://www.w3.org/2000/svg">
<path d="M17.5358 7.50003C17.5358 6.31603 18.0062 5.18052 18.8434 4.34331C19.6806 3.50609 20.8161 3.03575 22.0001 3.03575C23.1841 3.03575 24.3196 3.50609 25.1568 4.34331C25.994 5.18052 26.4644 6.31603 26.4644 7.50003C26.4644 8.68404 25.994 9.81955 25.1568 10.6568C24.3196 11.494 23.1841 11.9643 22.0001 11.9643C20.8161 11.9643 19.6806 11.494 18.8434 10.6568C18.0062 9.81955 17.5358 8.68404 17.5358 7.50003ZM22.0001 0.357178C20.1057 0.357178 18.2889 1.10973 16.9493 2.44927C15.6098 3.78882 14.8572 5.60563 14.8572 7.50003C14.8572 9.39444 15.6098 11.2113 16.9493 12.5508C18.2889 13.8903 20.1057 14.6429 22.0001 14.6429C23.8945 14.6429 25.7113 13.8903 27.0509 12.5508C28.3904 11.2113 29.143 9.39444 29.143 7.50003C29.143 5.60563 28.3904 3.78882 27.0509 2.44927C25.7113 1.10973 23.8945 0.357178 22.0001 0.357178ZM6.82153 8.39289C5.87433 8.39289 4.96592 8.76917 4.29615 9.43894C3.62638 10.1087 3.2501 11.0171 3.2501 11.9643C3.2501 12.9115 3.62638 13.8199 4.29615 14.4897C4.96592 15.1595 5.87433 15.5357 6.82153 15.5357C7.76873 15.5357 8.67714 15.1595 9.34691 14.4897C10.0167 13.8199 10.393 12.9115 10.393 11.9643C10.393 11.0171 10.0167 10.1087 9.34691 9.43894C8.67714 8.76917 7.76873 8.39289 6.82153 8.39289ZM0.571533 11.9643C0.571533 11.1436 0.733194 10.3308 1.04729 9.57255C1.36138 8.81426 1.82175 8.12527 2.40212 7.5449C2.98248 6.96454 3.67148 6.50417 4.42976 6.19007C5.18805 5.87598 6.00077 5.71432 6.82153 5.71432C7.64229 5.71432 8.45502 5.87598 9.2133 6.19007C9.97159 6.50417 10.6606 6.96454 11.241 7.5449C11.8213 8.12527 12.2817 8.81426 12.5958 9.57255C12.9099 10.3308 13.0715 11.1436 13.0715 11.9643C13.0715 13.6219 12.4131 15.2116 11.241 16.3837C10.0688 17.5558 8.47914 18.2143 6.82153 18.2143C5.16393 18.2143 3.57422 17.5558 2.40212 16.3837C1.23001 15.2116 0.571533 13.6219 0.571533 11.9643ZM37.1787 8.39289C36.2315 8.39289 35.3231 8.76917 34.6533 9.43894C33.9835 10.1087 33.6072 11.0171 33.6072 11.9643C33.6072 12.9115 33.9835 13.8199 34.6533 14.4897C35.3231 15.1595 36.2315 15.5357 37.1787 15.5357C38.1259 15.5357 39.0343 15.1595 39.7041 14.4897C40.3738 13.8199 40.7501 12.9115 40.7501 11.9643C40.7501 11.0171 40.3738 10.1087 39.7041 9.43894C39.0343 8.76917 38.1259 8.39289 37.1787 8.39289ZM30.9287 11.9643C30.9287 10.3067 31.5872 8.71701 32.7593 7.5449C33.9314 6.3728 35.5211 5.71432 37.1787 5.71432C38.8363 5.71432 40.426 6.3728 41.5981 7.5449C42.7702 8.71701 43.4287 10.3067 43.4287 11.9643C43.4287 13.6219 42.7702 15.2116 41.5981 16.3837C40.426 17.5558 38.8363 18.2143 37.1787 18.2143C35.5211 18.2143 33.9314 17.5558 32.7593 16.3837C31.5872 15.2116 30.9287 13.6219 30.9287 11.9643ZM13.0715 21.3393C13.0715 19.6143 14.4715 18.2143 16.1965 18.2143H27.8037C29.5287 18.2143 30.9287 19.6143 30.9287 21.3393V30.7143C30.9287 33.0823 29.988 35.3533 28.3136 37.0278C26.6391 38.7022 24.3681 39.6429 22.0001 39.6429C19.6321 39.6429 17.3611 38.7022 15.6867 37.0278C14.0122 35.3533 13.0715 33.0823 13.0715 30.7143V21.3393ZM16.1965 20.8929C16.0781 20.8929 15.9646 20.9399 15.8809 21.0236C15.7971 21.1074 15.7501 21.2209 15.7501 21.3393V30.7143C15.7501 32.3719 16.4086 33.9616 17.5807 35.1337C18.7528 36.3058 20.3425 36.9643 22.0001 36.9643C23.6577 36.9643 25.2474 36.3058 26.4195 35.1337C27.5916 33.9616 28.2501 32.3719 28.2501 30.7143V21.3393C28.2501 21.2209 28.2031 21.1074 28.1193 21.0236C28.0356 20.9399 27.9221 20.8929 27.8037 20.8929H16.1965ZM11.2858 21.3429L2.8876 23.5929C2.49114 23.6992 2.1195 23.8825 1.79392 24.1325C1.46833 24.3824 1.19517 24.6941 0.990043 25.0496C0.784916 25.4051 0.651839 25.7976 0.598414 26.2046C0.544989 26.6115 0.572262 27.025 0.678676 27.4215L2.18046 33.0268C2.52396 34.3099 3.14939 35.5001 4.01117 36.5108C4.87295 37.5215 5.94937 38.3272 7.162 38.8692C8.37462 39.4112 9.69288 39.6758 11.0207 39.6438C12.3486 39.6117 13.6525 39.2838 14.8376 38.684C14.1415 38.0586 13.5304 37.3448 13.0197 36.5607C12.8257 36.6346 12.6269 36.6988 12.4233 36.7536C11.6305 36.9661 10.8035 37.0204 9.98967 36.9133C9.17584 36.8062 8.39108 36.5399 7.6802 36.1294C6.96931 35.719 6.34624 35.1726 5.84656 34.5214C5.34687 33.8701 4.98036 33.1269 4.76796 32.334L3.26618 26.7268C3.23565 26.6124 3.25179 26.4906 3.31107 26.3882C3.37034 26.2857 3.46788 26.211 3.58225 26.1804L11.2858 24.1161V21.3429ZM29.1644 38.6822C29.7061 38.956 30.2811 39.1756 30.8894 39.3411C32.022 39.6446 33.2034 39.7221 34.366 39.569C35.5286 39.416 36.6496 39.0354 37.6651 38.449C38.6806 37.8627 39.5706 37.0821 40.2844 36.1517C40.9982 35.2214 41.5217 34.1595 41.8251 33.0268L43.3269 27.4197C43.5413 26.6193 43.429 25.7665 43.0148 25.0489C42.6005 24.3313 41.9183 23.8076 41.118 23.5929L32.7144 21.3429V24.1143L40.4251 26.1804C40.5391 26.2113 40.6363 26.2862 40.6952 26.3887C40.7541 26.4911 40.77 26.6127 40.7394 26.7268L39.2394 32.334C39.0132 33.1785 38.6124 33.9662 38.0627 34.6461C37.5131 35.3261 36.827 35.8832 36.0486 36.2813C35.2702 36.6795 34.417 36.91 33.544 36.9578C32.671 37.0056 31.7977 36.8698 30.9805 36.559C30.4697 37.3447 29.8572 38.059 29.1644 38.6822Z" fill="#F3B5AA"/>
</svg>
